<?xml version="1.0" encoding="utf-8"?>
<svg version="1.1" id="Laag_1" x="0px" y="0px" viewBox="0 0 38 38.6" style="enable-background:new 0 0 38 38.6;" xmlns="http://www.w3.org/2000/svg">
  <style type="text/css">
	.st0{clip-path:url(#SVGID_2_);fill:#E1733E;}
	.st1{clip-path:url(#SVGID_4_);}
	.st2{clip-path:url(#SVGID_6_);}
	.st3{clip-path:url(#SVGID_8_);}
	.st4{fill:#E1733E;}
	.st5{clip-path:url(#SVGID_10_);fill:#E1733E;}
	.st6{clip-path:url(#SVGID_12_);fill:#E1733E;}
	.st7{clip-path:url(#SVGID_14_);fill:#E1733E;}
	.st8{clip-path:url(#SVGID_16_);fill:#E1733E;}
	.st9{clip-path:url(#SVGID_18_);fill:#E1733E;}
	.st10{clip-path:url(#SVGID_20_);fill:#E1733E;}
	.st11{clip-path:url(#SVGID_22_);fill:#E1733E;}
	.st12{clip-path:url(#SVGID_24_);fill:none;stroke:#E1733E;stroke-width:0.696;}
	.st13{clip-path:url(#SVGID_26_);fill:#E1733E;}
	.st14{clip-path:url(#SVGID_28_);fill:#E1733E;}
	.st15{clip-path:url(#SVGID_30_);fill:#E1733E;}
	.st16{clip-path:url(#SVGID_32_);fill:#E1733E;}
	.st17{clip-path:url(#SVGID_34_);fill:none;stroke:#E1733E;stroke-width:0.151;}
	.st18{clip-path:url(#SVGID_36_);fill:#E1733E;}
	.st19{clip-path:url(#SVGID_38_);fill:#E1733E;}
</style>
  <g>
    <g>
      <defs>
        <rect id="SVGID_1_" width="38" height="38.6"/>
      </defs>
      <clipPath id="SVGID_2_">
        <rect width="38" height="38.6" transform="matrix(1, 0, 0, 1, 0, 0)" style="overflow: visible;"/>
      </clipPath>
      <path class="st0" d="M15,9.8c0,0,0-0.1,0.2-0.4c0.2-0.3,1.7-2.2,2.2-2.6c0.5-0.5,2-1.9,5.5-3.1c0,0,3.1-0.8,4.1-0.1 c0,0,0.1,0.1,0.2,0s0.2-0.2,0.1-0.4c-0.1-0.2-0.3-0.7,0-1.1c0.2-0.4,0.6-1,0.8-1.3c0.1-0.3,0.2-0.1,0.1-0.4c0,0,0-0.1,0.2-0.1 c0.2,0,0.2,0,0.2-0.1c0,0,0-0.1,0.2-0.1s0.6,0,1,0.1c0.4,0.1,0.3,0.1,0.8,0.2c0.5,0.1,0.9,0.2,1.3,0.3c0.4,0.1,1.4,1,1.4,2.1 c0,0,0.1,0.6-0.3,0.6c0,0,0,0.7-0.7,0.7c0,0-0.3,0.2-0.3,0.3c0,0.1,0,0.1,0,0.3c0.1,0.3,0.2,0.7,0.2,0.8c-0.1,0.1,0.1,0.2-0.5,0.1 c0,0-0.1,0-0.1,0.1c0,0.1,0.1,0.3-0.3,0.3c0,0,0,0.3-0.2,0.3c-0.2,0.1-0.3,0.2-0.3,0.3c0,0.1,0,0.5-0.5,0.3 c-0.4-0.2-0.9-0.5-1.1-0.5c-0.2,0-0.7,0-0.8,0.1c-0.1,0.1-0.1,0.3-0.2,0.6C28.1,7.4,28,7.6,28,7.8c-0.1,0.1-0.2,0.4-0.2,0.5 c0,0.1,0,1.4-0.1,1.6c0,0.3-0.1,0.7-0.1,0.8s0,0.6,0.2,1c0.1,0.4,1.4,3.7,2.2,4.8c0,0,0.5-0.1,1.4,0.8c0,0,0.3,0.4,0.4,0.7 s0.3,0.3,0.3,0.5c0.1,0.2,0.1,0.5-0.1,0.9c0,0,0,0.1,0,0.3c0,0.1,0,0.5-0.1,0.6c-0.1,0.1-0.1,0-0.1,0.1c0,0.1,0.1,0.2,0.1,0.2 c0,0-0.1,0.1-0.1,0c-0.1,0-0.3,0-0.2-1.1l-0.3-0.3c0,0,0,0.4-0.1,0.5s-0.1,0.1-0.1,0.1s0,0.5-0.1,0.4c0,0-0.1,0-0.1-0.2h0 c0,0,0.1,1.4-3.2,1.2c0,0-0.3,0.7-1.2,0.7s-1.5,0-1.5,0s-0.3,0-0.3-0.3c0,0-0.1-0.4,0.4-0.4c0.5,0,2,0,2.2-0.8c0,0,0-0.4,0-0.4 c-0.1,0-0.1,0.1-0.3,0s-0.5-0.4-0.5-0.4c0,0,0,0.1,0,0.1l0.4,1.3c0,0-0.6,0.2-0.7,0.2c0,0-0.5-1.4-0.5-1.4s-0.3-0.1-0.2-0.4 c0,0-0.1-0.3-0.1-0.4c0,0,0-0.2,0-0.3c0-0.1-0.1-0.3-0.2-0.5s-0.1-0.5,0.5-0.6c0,0-1.1-1.4-1.5-2.9c0,0-0.1-0.6-0.2-0.7 c-0.1-0.1-0.2-0.6-0.1-1.4c0,0,0-0.7-0.1-1.1c-0.1-0.4-0.3-1.3-0.1-1.5l-0.1-0.1c0,0-0.2,0-0.3,0.2c-0.1,0.1-0.6,0.3-0.7,0.4 s-0.4,0.1-0.5,0.3s-0.3,0.3-0.5,0.2c0,0-0.1,0.3-0.5,0.4c0,0-0.2,0.1-0.3,0.3c-0.1,0.1-0.2,0.2-0.3,0.3s-0.1,0.1-0.2,0.2 S20,12.2,20,12.3s-0.2,0.1-0.3,0.1c0,0-0.1,0.3,0.1,0.5c0.1,0.2,1.1,1.3,1.7,3.1c0,0,0.3,1.1,0.4,1.8c0.1,0.7,0.5,1.7,0.5,1.9 c0,0.2,0.2,0.6-0.2,1.5c0,0-0.5,0.7-0.5,0.9c0,0.2-0.6,2.2-1.5,3.4c0,0-1.2,2.5-1,3.5c0,0,0.1,0,0.1,0c0,0,0,0.1,0,0.2 s0,0.3,0,0.3s0.3,0,0.3,0.1l6.9-7.1L26.3,22l0.7-0.1l0.4,1.3c0,0,0.3,0,0.2,0.3c0,0,0.1-0.1,0.2,0.5V24L27,24.4l-0.2-0.6 c0,0,0.1-0.1,0.1-0.2c0,0,0-0.2,0-0.2c0,0-6.4,6.5-6.4,6.5s0.3,0,0.3,0.2c0,0,0.5-0.1,0.8,0.2c0,0,0,0.1,0,0.1c0,0,1.4,0,1.7-0.1 c0.3-0.1,0,1.1,0,1.1s-1.8,1-2.4,0.8c0,0,0.1,0.2,0.1,0.3c0,0.1-0.2,0.1-0.3,0.1s-2.5,0.5-2.8,0.6c-0.3,0.1-0.8,0.2-0.8,0 s-0.7-2.6-0.7-2.6L16.2,30l-0.5-1l0.1-0.1l-0.2-0.6c0,0-0.6,1-0.7,1.2c0,0,0.1,0.6,0.1,1.4l-0.2,2.1c0,0,0.3,0.7,0.3,0.8 c0,0.2,0,0.2-0.3,0.3c-0.3,0.1-0.4,0-0.5-0.1c-0.1-0.2-0.7-0.7-0.7-0.7s-0.1,0.1-0.4,0.1c-0.3,0-0.4-0.1-0.5-0.5 c0,0-0.2-0.2-0.2-0.3c0,0,0-0.2,0.4-0.2L13,32.1c0,0-0.2-0.8-0.3-1c0-0.2-0.3-0.7-0.5-1c-0.2-0.3-0.6-0.7-0.6-1 c0-0.3,0.6-0.6,1.1-0.7c0,0,0.1,0,0.4-0.1c0.2-0.1,0.2-0.2,0.6-0.1l0.1-0.2c0,0,1.6-2.4,1.7-2.6c0,0,0.4-0.6,0.7-1.2 c0.3-0.6,0.7-1.4,1.5-2c0,0,0.7-0.3,0.8-0.9c0,0,0.1-1.3-0.1-1.6c-0.2-0.2-1.5-2.1-1.9-3.3c0,0-0.5-1-0.8-1.3 c-0.3-0.3-1.5-1.2-1.5-3C14.3,12.2,14,10.8,15,9.8"/>
    </g>
    <g>
      <defs>
        <rect id="SVGID_3_" width="38" height="38.6"/>
      </defs>
      <clipPath id="SVGID_4_">
        <rect width="38" height="38.6" transform="matrix(1, 0, 0, 1, 0, 0)" style="overflow: visible;"/>
      </clipPath>
      <path class="st1" d="M16.1,27.7c0,0,1.1-1.2,1.4-1.4c0,0-0.5,3-0.5,3.2c0,0.2-0.3,0.2-0.3,0.1c0-0.1,0-0.1,0-0.2s-0.2-0.1-0.2-0.2 C16.5,29,16.1,27.7,16.1,27.7" style="fill: rgb(255, 255, 255);"/>
    </g>
    <g>
      <defs>
        <rect id="SVGID_5_" width="38" height="38.6"/>
      </defs>
      <clipPath id="SVGID_6_">
        <rect width="38" height="38.6" transform="matrix(1, 0, 0, 1, 0, 0)" style="overflow: visible;"/>
      </clipPath>
      <path class="st2" d="M27.7,18.2c0,0,2-0.2,2.1,1.2c0,0,0.3,1.3-1.4,1.1c0,0,0.1-1,0.2-1.1c0-0.1,0.2-0.6-0.1-1 c0,0-0.1-0.2-0.5,0.1L27.7,18.2z" style="fill: rgb(255, 255, 255);"/>
    </g>
    <g>
      <defs>
        <rect id="SVGID_7_" width="38" height="38.6"/>
      </defs>
      <clipPath id="SVGID_8_">
        <rect width="38" height="38.6" transform="matrix(1, 0, 0, 1, 0, 0)" style="overflow: visible;"/>
      </clipPath>
      <path class="st3" d="M27.2,17.3c0,0,1.3,0,1.5,0l0-0.3c0,0-1-1.2-1.6-2c-0.6-0.8-1.2-1.7-1.4-2.2c0,0,0.5,2.9,1.3,4.3L27.2,17.3z" style="fill: rgb(255, 255, 255);"/>
    </g>
  </g>
  <rect x="26.2" y="21" transform="matrix(0.9461 -0.324 0.324 0.9461 -5.5337 9.7632)" class="st4" width="0.7" height="1"/>
  <g>
    <g>
      <defs>
        <rect id="SVGID_9_" width="38" height="38.6"/>
      </defs>
      <clipPath id="SVGID_10_">
        <rect width="38" height="38.6" transform="matrix(1, 0, 0, 1, 0, 0)" style="overflow: visible;"/>
      </clipPath>
      <path class="st5" d="M28.2,21.2c0,0,0.1,0.4,0.4,0.4c0,0,0.1,0,0-0.1c-0.1-0.1-0.2-0.3-0.1-0.4L28.2,21.2z"/>
    </g>
    <g>
      <defs>
        <rect id="SVGID_11_" width="38" height="38.6"/>
      </defs>
      <clipPath id="SVGID_12_">
        <rect width="38" height="38.6" transform="matrix(1, 0, 0, 1, 0, 0)" style="overflow: visible;"/>
      </clipPath>
      <path class="st6" d="M25.9,20.4v-0.7l-12.1-0.1c0,0-0.1-0.1-0.1-0.1s-0.2-1.2-0.4-1.5S13,17.8,13,17.8s-0.1-0.4,0-0.5 c0.1,0,0.4-0.1,0.7-0.1c0.4,0,0.6-0.1,1.1-0.1c0.4,0,1-0.1,1-0.2c0.1-0.1,0.1-0.1,0-0.3s-0.8-0.5-1.9-0.3 c-1.2,0.2-1.4-0.1-2.3-0.1c-0.9,0-1.6-0.1-1.8,0.4c0,0-0.1,0.1,0.4,0.5c0.6,0.3,0.7,0.4,0.8,0.5c0.1,0,0.4,0.1,0.5,0.1 c0.1,0,0.2-0.1,0.3-0.1c0.1,0,0.1,0,0.1,0.1c0,0.1,0.1,0.3,0.4,0.5c0.3,0.2,0.6,0.3,0.7,1.3l0,0.2c0,0-0.1,0-0.1,0.1 c0,0.1-0.1,0.1,0,0.2c0,0,0.1,0.2,0.2,0.4c0.1,0.2,1.8,6,1.8,6l0.4-0.8L14,20.2L25.9,20.4L25.9,20.4L25.9,20.4z"/>
    </g>
    <g>
      <defs>
        <rect id="SVGID_13_" width="38" height="38.6"/>
      </defs>
      <clipPath id="SVGID_14_">
        <rect width="38" height="38.6" transform="matrix(1, 0, 0, 1, 0, 0)" style="overflow: visible;"/>
      </clipPath>
      <path class="st7" d="M13.3,20.3c0,0-1.4,0.7-1.3,2.5l-0.7,1.6l-0.7-0.4c0,0,0.5-0.3,0.4-0.4c-0.1-0.1-0.1-0.2,0-0.3 c0.1-0.1,0.4-0.3,0.4-0.4c0.1-0.1,0.3-0.3,0.3-0.3s-0.1-1.8,1.3-2.5L13.3,20.3z"/>
    </g>
    <g>
      <defs>
        <rect id="SVGID_15_" width="38" height="38.6"/>
      </defs>
      <clipPath id="SVGID_16_">
        <rect width="38" height="38.6" transform="matrix(1, 0, 0, 1, 0, 0)" style="overflow: visible;"/>
      </clipPath>
      <path class="st8" d="M30.8,30.5c0,0-0.7-0.3-1.5-2.2s-1.2-3.7-1.2-3.7s-0.6-0.1-0.5,0.2c0,0,1.1,3.4,1.7,4.2 c0.6,0.8,0.9,1.5,1.5,1.7S30.8,30.5,30.8,30.5"/>
    </g>
    <g>
      <defs>
        <rect id="SVGID_17_" width="38" height="38.6"/>
      </defs>
      <clipPath id="SVGID_18_">
        <rect width="38" height="38.6" transform="matrix(1, 0, 0, 1, 0, 0)" style="overflow: visible;"/>
      </clipPath>
      <path class="st9" d="M30.1,30.3c0,0-1-0.6-1.9-3.4c0,0-0.6-1.9-0.6-2.1L27.2,25c0,0,0.8,2.7,1.4,3.8c0.7,1,1.5,1.8,1.5,1.8 C30.2,30.6,30.1,30.3,30.1,30.3"/>
    </g>
    <g>
      <defs>
        <rect id="SVGID_19_" width="38" height="38.6"/>
      </defs>
      <clipPath id="SVGID_20_">
        <rect width="38" height="38.6" transform="matrix(1, 0, 0, 1, 0, 0)" style="overflow: visible;"/>
      </clipPath>
      <path class="st10" d="M31.6,31c0,0.3-0.2,0.5-0.5,0.5c-0.3,0-0.5-0.2-0.5-0.5s0.2-0.5,0.5-0.5C31.4,30.5,31.6,30.7,31.6,31"/>
    </g>
    <g>
      <defs>
        <rect id="SVGID_21_" width="38" height="38.6"/>
      </defs>
      <clipPath id="SVGID_22_">
        <rect width="38" height="38.6" transform="matrix(1, 0, 0, 1, 0, 0)" style="overflow: visible;"/>
      </clipPath>
      <path class="st11" d="M31.1,30.8c0,0.3-0.3,0.6-0.7,0.6c-0.4,0-0.7-0.3-0.7-0.6s0.3-0.6,0.7-0.6C30.8,30.2,31.1,30.5,31.1,30.8"/>
    </g>
  </g>
  <g>
    <g>
      <defs>
        <rect id="SVGID_23_" width="38" height="38.6"/>
      </defs>
      <clipPath id="SVGID_24_">
        <rect width="38" height="38.6" transform="matrix(1, 0, 0, 1, 0, 0)" style="overflow: visible;"/>
      </clipPath>
      <path class="st12" d="M37.7,31c0,4-3.2,7.3-7.2,7.3S23.3,35,23.3,31s3.2-7.3,7.2-7.3C34.5,23.7,37.7,27,37.7,31z M14.8,30.9 c0,4-3.2,7.3-7.2,7.3c-4,0-7.2-3.3-7.2-7.3s3.2-7.3,7.2-7.3C11.5,23.6,14.8,26.9,14.8,30.9z"/>
    </g>
  </g>
  <g>
    <g>
      <defs>
        <rect id="SVGID_25_" width="38" height="38.6"/>
      </defs>
      <clipPath id="SVGID_26_">
        <rect width="38" height="38.6" transform="matrix(1, 0, 0, 1, 0, 0)" style="overflow: visible;"/>
      </clipPath>
      <path class="st13" d="M8.8,30.8c0,0.7-0.5,1.2-1.2,1.2c-0.7,0-1.2-0.5-1.2-1.2c0-0.7,0.5-1.2,1.2-1.2C8.2,29.6,8.8,30.1,8.8,30.8"/>
    </g>
    <g>
      <defs>
        <rect id="SVGID_27_" width="38" height="38.6"/>
      </defs>
      <clipPath id="SVGID_28_">
        <rect width="38" height="38.6" transform="matrix(1, 0, 0, 1, 0, 0)" style="overflow: visible;"/>
      </clipPath>
      <path class="st14" d="M17.1,35c-0.8,0.1-7.8-0.1-7.8-0.1s0-0.1,0-0.3s-0.1-0.5-0.2-0.7c-0.2-0.1-0.2,0-0.1-0.1 c0.1-0.1,0.3-0.7,0.3-0.7c0.3-0.9-0.1-0.8-0.1-0.8C9.4,32,8.9,32,8.7,31.9c-0.2,0-0.4-0.2-0.4-0.2l-1.1,0c0,0,0.1,0.2,0.1,0.3 c-0.1,0.1-0.2,0.1,0,0.5C7.5,32.9,7.1,33,7.1,33c-1.3,0.1-1.5-0.8-1.5-0.8c-0.1-0.9,0.9-0.9,0.9-0.9v-0.1c-1,0.1-1,0.8-1,0.8 c-0.2,0.9,1.3,1.1,1.3,1.1c0.8,0.2,0.9-0.4,0.9-0.4h0.3c0.1,0,0.1,0.1,0.3,0.2c0.1,0.2,0.3,0.2,0.3,0.2s0.1,0.2,0.1,0.4 c0,0.2-0.1,0.2-0.3,0.6s0.1,0.7,0.1,0.7S8.1,34.9,8.2,35s0.1,0.1,2.7,0.2s5.6,0.1,6.8-0.1c0,0,2-0.1,2-2.4l-0.3,0 c0,0,0.2,1.6-1.7,2c0,0-1.9,0.3-2.3-1.8l-0.3-0.1c0,0,0.1,0.2,0,0.2c0,0,0.2,0.2,0.1,0.3c0,0,0.2,0.1,0.1,0.3c0,0,0.2,0,0.1,0.2 c0,0,0.2,0,0.2,0.3c0,0,0.3,0,0.2,0.2c0,0,0.3,0,0.2,0.2c0,0,0.2,0,0.2,0.2c0,0,0.3-0.1,0.3,0.1c0,0,0.2-0.1,0.3,0.1 C16.9,34.9,17.1,34.8,17.1,35L17.1,35z"/>
    </g>
    <g>
      <defs>
        <rect id="SVGID_29_" width="38" height="38.6"/>
      </defs>
      <clipPath id="SVGID_30_">
        <rect width="38" height="38.6" transform="matrix(1, 0, 0, 1, 0, 0)" style="overflow: visible;"/>
      </clipPath>
      <path class="st15" d="M19.2,33.8h-0.8L18,33.9L17.6,33l-0.3,0l0.5,1l-0.4,0.8l0.2,0l0.3-0.7c0,0,0.2-0.1,0.3-0.2l0.9,0L19.2,33.8z "/>
    </g>
    <g>
      <defs>
        <rect id="SVGID_31_" width="38" height="38.6"/>
      </defs>
      <clipPath id="SVGID_32_">
        <rect width="38" height="38.6" transform="matrix(1, 0, 0, 1, 0, 0)" style="overflow: visible;"/>
      </clipPath>
      <path class="st16" d="M16.8,32.7l0,0.1l-0.7,0.4c0,0-0.6-0.3-0.6-0.3l-0.1,0l0,0.2c0,0,0.7,0.3,0.7,0.4l0.9-0.4l0-0.5L16.8,32.7z"/>
    </g>
    <g>
      <defs>
        <rect id="SVGID_33_" width="38" height="38.6"/>
      </defs>
      <clipPath id="SVGID_34_">
        <rect width="38" height="38.6" transform="matrix(1, 0, 0, 1, 0, 0)" style="overflow: visible;"/>
      </clipPath>
      <path class="st17" d="M18.8,32.8c0,0.8-0.6,1.4-1.4,1.4c-0.8,0-1.4-0.6-1.4-1.4c0-0.8,0.6-1.4,1.4-1.4 C18.2,31.4,18.8,32,18.8,32.8z"/>
    </g>
    <g>
      <defs>
        <rect id="SVGID_35_" width="38" height="38.6"/>
      </defs>
      <clipPath id="SVGID_36_">
        <rect width="38" height="38.6" transform="matrix(1, 0, 0, 1, 0, 0)" style="overflow: visible;"/>
      </clipPath>
      <path class="st18" d="M15.6,32c0,0,0.3-0.7,0.9-0.9l-0.1-0.2c0,0-0.1,0.1-0.2,0c0,0,0,0.3-0.3,0.1c0,0,0.1,0.2-0.1,0.2 c0,0,0.1,0.2-0.2,0.2c0,0,0.1,0.3-0.2,0.3c0,0,0.1,0.3-0.1,0.3C15.2,32,15.6,32,15.6,32"/>
    </g>
    <g>
      <defs>
        <rect id="SVGID_37_" width="38" height="38.6"/>
      </defs>
      <clipPath id="SVGID_38_">
        <rect width="38" height="38.6" transform="matrix(1, 0, 0, 1, 0, 0)" style="overflow: visible;"/>
      </clipPath>
      <path class="st19" d="M15,31.5c0,0,1-1,1.4-1l-0.1-0.6L14.9,31L15,31.5z"/>
    </g>
  </g>
</svg>