<?xml version="1.0" encoding="utf-8"?>
<svg version="1.1" id="Laag_1" x="0px" y="0px" viewBox="0 0 26.9 27.28" style="enable-background:new 0 0 26.9 27.28;" xmlns="http://www.w3.org/2000/svg">
  <style type="text/css">
	.st0{clip-path:url(#SVGID_2_);fill:#80CEC8;}
	.st1{clip-path:url(#SVGID_2_);}
	.st2{fill:#80CEC8;}
	.st3{clip-path:url(#SVGID_4_);fill:#80CEC8;}
	.st4{clip-path:url(#SVGID_4_);}
	.st5{clip-path:url(#SVGID_4_);fill:none;stroke:#80CEC8;stroke-width:0.107;}
	.st6{clip-path:url(#SVGID_6_);fill:none;stroke:#80CEC8;stroke-width:0.492;}
</style>
  <g>
    <defs>
      <rect id="SVGID_1_" width="26.9" height="27.28"/>
    </defs>
    <clipPath id="SVGID_2_">
      <rect width="26.9" height="27.28" transform="matrix(1, 0, 0, 1, 0, 0)" style="overflow: visible;"/>
    </clipPath>
    <path class="st0" d="M10.62,6.94c0,0-0.03-0.1,0.14-0.31c0.17-0.22,1.2-1.53,1.56-1.86c0.36-0.33,1.39-1.37,3.91-2.2 c0,0,2.23-0.55,2.87-0.09c0,0,0.1,0.06,0.16-0.01c0.06-0.07,0.15-0.11,0.07-0.27c-0.07-0.16-0.2-0.5-0.03-0.77 c0.17-0.27,0.46-0.7,0.54-0.94c0.09-0.24,0.12-0.05,0.09-0.32c0,0-0.01-0.06,0.12-0.06s0.16-0.03,0.17-0.06 C20.22,0.02,20.17,0,20.32,0c0.15,0,0.41,0.01,0.73,0.09c0.31,0.09,0.23,0.09,0.58,0.16c0.34,0.08,0.64,0.13,0.91,0.24 c0.27,0.11,1.01,0.69,1.01,1.5c0,0,0.05,0.4-0.2,0.41c0,0-0.03,0.48-0.51,0.47c0,0-0.18,0.15-0.21,0.19 c-0.03,0.04-0.02,0.05,0.02,0.25c0.04,0.19,0.17,0.47,0.12,0.53c-0.06,0.06,0.05,0.14-0.37,0.05c0,0-0.08,0.03-0.1,0.08 c-0.02,0.04,0.05,0.19-0.24,0.18c0,0,0.03,0.18-0.13,0.24c-0.16,0.06-0.17,0.17-0.19,0.25C21.74,4.73,21.72,5,21.43,4.86 c-0.29-0.14-0.62-0.33-0.78-0.34c-0.16-0.02-0.51-0.01-0.55,0.1c-0.04,0.1-0.09,0.21-0.14,0.43c-0.05,0.21-0.13,0.36-0.18,0.45 c-0.06,0.09-0.14,0.3-0.14,0.34c0,0.03-0.04,0.96-0.05,1.16c-0.01,0.2-0.04,0.48-0.05,0.56c-0.01,0.09,0.03,0.41,0.11,0.73 c0.08,0.31,0.98,2.65,1.58,3.37c0,0,0.35-0.08,1,0.53c0,0,0.23,0.25,0.27,0.49c0.05,0.25,0.18,0.21,0.23,0.36 c0.05,0.15,0.1,0.38-0.05,0.64c0,0-0.02,0.1-0.02,0.19c0,0.09-0.02,0.35-0.07,0.41c-0.05,0.06-0.08,0-0.08,0.06 c0,0.07,0.06,0.14,0.06,0.17c0,0.03-0.06,0.05-0.11,0.03c-0.04-0.02-0.19-0.02-0.16-0.79l-0.2-0.24c0,0,0.01,0.29-0.05,0.39 C22,13.99,21.97,14,21.97,14s0.01,0.32-0.08,0.31c0,0-0.1,0.01-0.11-0.15h-0.03c0,0,0.06,0.98-2.26,0.87c0,0-0.23,0.47-0.87,0.47 c-0.64,0-1.05,0.02-1.05,0.02s-0.19,0-0.19-0.22c0,0-0.06-0.28,0.29-0.28c0.34,0,1.43,0.02,1.58-0.57c0,0,0.01-0.29-0.03-0.31 c-0.04-0.02-0.09,0.06-0.21,0.01c-0.12-0.05-0.36-0.26-0.37-0.29c0-0.04-0.03,0.05-0.03,0.05l0.31,0.92c0,0-0.45,0.15-0.48,0.14 c-0.04-0.01-0.35-1-0.35-1s-0.18-0.06-0.16-0.3c0,0-0.06-0.22-0.09-0.26c-0.02-0.04,0-0.12-0.02-0.22 c-0.02-0.09-0.09-0.22-0.11-0.33c-0.02-0.11-0.05-0.35,0.37-0.39c0,0-0.77-0.99-1.08-2.06c0,0-0.11-0.41-0.15-0.51 c-0.05-0.1-0.12-0.46-0.06-0.96c0,0,0.01-0.5-0.05-0.79c-0.05-0.29-0.18-0.9-0.11-1.05l-0.06-0.07c0,0-0.13,0.02-0.23,0.13 c-0.09,0.11-0.4,0.23-0.52,0.28c-0.12,0.05-0.29,0.1-0.37,0.19c-0.08,0.09-0.22,0.19-0.34,0.17c0,0-0.1,0.2-0.36,0.3 c0,0-0.12,0.1-0.18,0.19c-0.06,0.1-0.14,0.14-0.19,0.18c-0.05,0.04-0.11,0.06-0.16,0.11c-0.06,0.05-0.06,0.07-0.09,0.1 c-0.04,0.03-0.14,0.11-0.21,0.06c0,0-0.05,0.2,0.05,0.33c0.1,0.13,0.77,0.9,1.2,2.22c0,0,0.21,0.81,0.31,1.28 c0.1,0.48,0.34,1.19,0.34,1.33c0,0.13,0.15,0.41-0.17,1.03c0,0-0.34,0.5-0.34,0.66c-0.01,0.15-0.44,1.56-1.05,2.41 c0,0-0.83,1.79-0.68,2.49c0,0,0.09-0.01,0.1,0.01c0.01,0.02,0.03,0.07,0.02,0.12c-0.01,0.06-0.03,0.2-0.03,0.2s0.2,0,0.22,0.04 l4.87-5.01l-0.12-0.33l0.52-0.11l0.26,0.89c0,0,0.19-0.01,0.16,0.21c0,0,0.06-0.06,0.17,0.35v0.1l-0.65,0.29l-0.17-0.45 c0,0,0.06-0.07,0.06-0.16c0-0.03-0.04-0.13-0.04-0.16c0-0.03-4.56,4.57-4.56,4.57s0.21,0.01,0.24,0.14c0,0,0.36-0.07,0.59,0.13 c0,0,0.01,0.07,0.01,0.1c0,0.03,1.01-0.01,1.21-0.05c0.2-0.04,0,0.76,0,0.76s-1.27,0.69-1.69,0.57c0,0,0.11,0.15,0.09,0.2 c-0.02,0.05-0.12,0.04-0.23,0.05c-0.12,0-1.8,0.33-1.98,0.42c-0.18,0.09-0.53,0.16-0.59,0c-0.06-0.16-0.49-1.84-0.49-1.84 l-0.09-0.32l-0.33-0.69l0.07-0.08l-0.12-0.42c0,0-0.45,0.73-0.47,0.88c0,0,0.1,0.44,0.08,1.01l-0.11,1.46c0,0,0.23,0.47,0.23,0.6 c-0.01,0.12-0.02,0.15-0.21,0.21c-0.19,0.06-0.3,0.01-0.38-0.09c-0.08-0.11-0.47-0.52-0.47-0.52s-0.05,0.09-0.26,0.05 c-0.21-0.03-0.32-0.09-0.34-0.34c0,0-0.16-0.11-0.16-0.2c0,0,0-0.11,0.27-0.11l-0.09-0.24c0,0-0.17-0.57-0.2-0.72 c-0.03-0.15-0.22-0.48-0.36-0.68c-0.14-0.19-0.42-0.51-0.4-0.72c0.02-0.21,0.41-0.45,0.79-0.51c0,0,0.09,0.01,0.25-0.07 c0.16-0.08,0.17-0.14,0.39-0.05l0.09-0.11c0,0,1.12-1.71,1.23-1.85c0,0,0.27-0.41,0.49-0.85c0.22-0.44,0.48-0.98,1.07-1.45 c0,0,0.49-0.23,0.59-0.66c0,0,0.1-0.95-0.04-1.1c-0.14-0.15-1.09-1.51-1.34-2.32c0,0-0.36-0.72-0.54-0.9 c-0.18-0.18-1.04-0.86-1.06-2.1C10.1,8.65,9.92,7.6,10.62,6.94"/>
    <path class="st1" d="M11.4,19.6c0,0,0.81-0.88,1-0.99c0,0-0.32,2.14-0.36,2.26c-0.03,0.11-0.19,0.16-0.19,0.05 c0-0.04,0.04-0.09-0.02-0.13c-0.06-0.05-0.14-0.07-0.14-0.17C11.69,20.53,11.4,19.6,11.4,19.6" style="fill: rgb(255, 255, 255);"/>
    <path class="st1" d="M19.6,12.85c0,0,1.38-0.14,1.51,0.85c0,0,0.19,0.89-1.01,0.78c0,0,0.11-0.68,0.14-0.79 c0.03-0.11,0.13-0.41-0.08-0.73c0,0-0.1-0.15-0.35,0.09L19.6,12.85z" style="fill: rgb(255, 255, 255);"/>
    <path class="st1" d="M19.2,12.25c0,0,0.92-0.02,1.05,0l-0.01-0.2c0,0-0.69-0.84-1.13-1.39c-0.44-0.55-0.87-1.21-0.96-1.57 c0,0,0.39,2.03,0.89,3.06L19.2,12.25z" style="fill: rgb(255, 255, 255);"/>
  </g>
  <rect x="18.52" y="14.85" transform="matrix(0.9458 -0.3247 0.3247 0.9458 -3.9202 6.9221)" class="st2" width="0.52" height="0.71"/>
  <g>
    <defs>
      <rect id="SVGID_3_" width="26.9" height="27.28"/>
    </defs>
    <clipPath id="SVGID_4_">
      <rect width="26.9" height="27.28" transform="matrix(1, 0, 0, 1, 0, 0)" style="overflow: visible;"/>
    </clipPath>
    <path class="st3" d="M19.95,15.01c0,0,0.09,0.31,0.28,0.31c0,0,0.05-0.03,0.01-0.1c-0.04-0.07-0.13-0.21-0.07-0.27L19.95,15.01z"/>
    <path class="st3" d="M18.3,14.43v-0.5l-8.53-0.04c0,0-0.06-0.09-0.11-0.09c-0.05,0-0.11-0.86-0.31-1.05 c-0.2-0.2-0.17-0.18-0.17-0.18S9.1,12.27,9.2,12.24c0.1-0.02,0.27-0.1,0.52-0.11c0.24-0.01,0.45-0.06,0.76-0.07 c0.3-0.02,0.68-0.09,0.73-0.15c0.05-0.06,0.09-0.08,0.01-0.19c-0.09-0.11-0.55-0.32-1.36-0.2c-0.82,0.12-0.99-0.04-1.6-0.07 c-0.61-0.02-1.15-0.07-1.25,0.28c0,0-0.08,0.1,0.32,0.32c0.4,0.23,0.51,0.3,0.57,0.34c0.07,0.04,0.28,0.08,0.36,0.07 c0.07-0.01,0.16-0.05,0.19-0.05c0.03,0,0.04-0.01,0.06,0.06c0.03,0.06,0.11,0.21,0.28,0.33c0.17,0.12,0.39,0.18,0.48,0.92 l0.01,0.15c0,0-0.08,0.02-0.07,0.11c0.01,0.08-0.08,0.05,0.03,0.12c0,0,0.1,0.13,0.13,0.26c0.04,0.13,1.28,4.21,1.28,4.21 l0.32-0.53l-1.09-3.74l8.43,0.16V14.43z"/>
    <path class="st3" d="M9.37,14.32c0,0-1.03,0.51-0.89,1.74L7.99,17.2l-0.47-0.3c0,0,0.33-0.2,0.27-0.27 c-0.06-0.07-0.1-0.13,0.01-0.21c0.11-0.08,0.24-0.2,0.3-0.28c0.06-0.08,0.24-0.19,0.24-0.19s-0.09-1.29,0.94-1.8L9.37,14.32z"/>
    <path class="st3" d="M21.79,21.56c0,0-0.51-0.21-1.06-1.53c-0.54-1.32-0.87-2.62-0.87-2.62s-0.42-0.04-0.36,0.13 c0,0,0.8,2.39,1.2,2.94c0.4,0.56,0.64,1.05,1.06,1.18C22.17,21.79,21.79,21.56,21.79,21.56"/>
    <path class="st3" d="M21.26,21.43c0,0-0.71-0.45-1.37-2.41c0,0-0.42-1.31-0.44-1.5l-0.25,0.18c0,0,0.54,1.93,1.02,2.67 c0.48,0.74,1.05,1.27,1.09,1.27C21.36,21.64,21.26,21.43,21.26,21.43"/>
    <path class="st3" d="M22.33,21.92c0,0.21-0.17,0.37-0.37,0.37c-0.21,0-0.38-0.17-0.38-0.37c0-0.2,0.17-0.37,0.38-0.37 C22.17,21.54,22.33,21.71,22.33,21.92"/>
    <path class="st3" d="M22.01,21.81c0,0.24-0.22,0.44-0.49,0.44c-0.27,0-0.49-0.19-0.49-0.44s0.22-0.44,0.49-0.44 C21.79,21.37,22.01,21.57,22.01,21.81"/>
    <path class="st3" d="M6.2,21.79c0,0.48-0.38,0.86-0.86,0.86c-0.47,0-0.85-0.38-0.85-0.86c0-0.47,0.38-0.86,0.85-0.86 C5.82,20.94,6.2,21.32,6.2,21.79"/>
    <path class="st3" d="M12.08,24.73c-0.59,0.05-5.49-0.08-5.49-0.08s-0.02-0.09,0.01-0.19c0.03-0.1-0.05-0.37-0.16-0.46 c-0.12-0.1-0.13-0.02-0.07-0.09c0.05-0.07,0.24-0.49,0.24-0.49c0.2-0.62-0.09-0.58-0.09-0.58c0.09-0.25-0.2-0.26-0.38-0.28 c-0.17-0.02-0.28-0.13-0.28-0.13l-0.8,0.03c0,0,0.09,0.15,0.05,0.23c-0.03,0.07-0.15,0.1,0.01,0.32c0.16,0.22-0.07,0.27-0.07,0.27 c-0.9,0.05-1.08-0.53-1.08-0.53c-0.04-0.65,0.61-0.67,0.61-0.67v-0.06c-0.7,0.06-0.7,0.58-0.7,0.58c-0.13,0.61,0.89,0.8,0.89,0.8 c0.59,0.17,0.64-0.3,0.64-0.3h0.18c0.06,0,0.09,0.05,0.2,0.16c0.11,0.1,0.2,0.11,0.2,0.11s0.07,0.12,0.09,0.26 c0.01,0.14-0.07,0.14-0.22,0.44c-0.15,0.3,0.04,0.48,0.04,0.48s-0.15,0.06-0.1,0.16c0.06,0.1,0.1,0.1,1.91,0.12 c1.81,0.02,3.95,0.09,4.81-0.07c0,0,1.42-0.08,1.42-1.7l-0.22,0.02c0,0,0.12,1.14-1.19,1.44c0,0-1.3,0.23-1.59-1.24l-0.22-0.07 c0,0,0.1,0.13,0.02,0.15c0,0,0.13,0.11,0.04,0.23c0,0,0.15,0.05,0.08,0.19c0,0,0.14,0.03,0.1,0.17c0,0,0.16,0.01,0.12,0.19 c0,0,0.18-0.01,0.15,0.15c0,0,0.18-0.02,0.17,0.12c0,0,0.16-0.03,0.15,0.12c0,0,0.18-0.07,0.22,0.08c0,0,0.17-0.06,0.19,0.04 c0,0,0.14-0.07,0.17,0.04L12.08,24.73z"/>
    <path class="st3" d="M13.56,23.9l-0.55,0L12.73,24l-0.27-0.63l-0.21,0.03l0.35,0.68l-0.24,0.57l0.15-0.03l0.2-0.5 c0,0,0.13-0.07,0.21-0.14l0.6,0.01L13.56,23.9z"/>
    <path class="st3" d="M11.87,23.14l0.02,0.09l-0.49,0.29c0,0-0.4-0.18-0.42-0.22l-0.1-0.01l0.02,0.13c0,0,0.49,0.2,0.5,0.27 l0.65-0.26l-0.03-0.34L11.87,23.14z"/>
    <path class="st4" d="M13.29,23.16c0,0.54-0.44,0.99-0.99,0.99c-0.55,0-0.99-0.44-0.99-0.99c0-0.54,0.44-0.98,0.99-0.98 C12.85,22.18,13.29,22.62,13.29,23.16" style="fill: rgb(255, 255, 255);"/>
    <path class="st5" d="M13.29,23.16c0,0.54-0.44,0.99-0.99,0.99c-0.55,0-0.99-0.44-0.99-0.99c0-0.54,0.44-0.98,0.99-0.98 C12.85,22.18,13.29,22.62,13.29,23.16z"/>
    <path class="st3" d="M11.03,22.59c0,0,0.23-0.49,0.63-0.65l-0.06-0.16c0,0-0.07,0.09-0.15,0.03c0,0-0.02,0.17-0.18,0.1 c0,0,0.07,0.14-0.1,0.14c0,0,0.04,0.15-0.13,0.15c0,0,0.07,0.19-0.13,0.18c0,0,0.07,0.23-0.04,0.23 C10.74,22.63,11.03,22.59,11.03,22.59"/>
    <path class="st3" d="M10.62,22.26c0,0,0.7-0.69,0.96-0.71l-0.09-0.4l-0.93,0.8L10.62,22.26z"/>
  </g>
  <g>
    <defs>
      <rect id="SVGID_5_" y="0" width="26.9" height="27.28"/>
    </defs>
    <clipPath id="SVGID_6_">
      <rect y="0" width="26.9" height="27.28" transform="matrix(1, 0, 0, 1, 0, 0)" style="overflow: visible;"/>
    </clipPath>
    <path class="st6" d="M26.65,21.9c0,2.84-2.28,5.14-5.09,5.14c-2.81,0-5.09-2.3-5.09-5.14c0-2.84,2.28-5.14,5.09-5.14 C24.37,16.76,26.65,19.06,26.65,21.9z M10.43,21.84c0,2.84-2.28,5.14-5.09,5.14c-2.81,0-5.09-2.3-5.09-5.14s2.28-5.14,5.09-5.14 C8.15,16.7,10.43,19,10.43,21.84z"/>
  </g>
</svg>