<?xml version="1.0" encoding="utf-8"?>
<!-- Generator: Adobe Illustrator 23.0.0, SVG Export Plug-In . SVG Version: 6.00 Build 0)  -->
<svg version="1.1" id="Laag_1"
	xmlns="http://www.w3.org/2000/svg"
	xmlns:xlink="http://www.w3.org/1999/xlink" x="0px" y="0px" viewBox="0 0 142.7 68.9" style="enable-background:new 0 0 142.7 68.9;" xml:space="preserve">
	<style type="text/css">
	.st0{clip-path:url(#SVGID_2_);fill:url(#SVGID_3_);}
	.st1{clip-path:url(#SVGID_5_);fill:url(#SVGID_6_);}
	.st2{clip-path:url(#SVGID_8_);fill:url(#SVGID_9_);}
	.st3{clip-path:url(#SVGID_11_);fill:#120C15;}
	.st4{clip-path:url(#SVGID_13_);fill:#120C15;}
	.st5{clip-path:url(#SVGID_15_);}
	.st6{fill:#231F20;}
	.st7{font-family:'Georgia';}
	.st8{font-size:8.1299px;}
	.st9{clip-path:url(#SVGID_17_);fill:#120C15;}
	.st10{clip-path:url(#SVGID_19_);fill:#120C15;}
	.st11{clip-path:url(#SVGID_21_);fill:#120C15;}
	.st12{clip-path:url(#SVGID_23_);fill:#120C15;}
	.st13{clip-path:url(#SVGID_25_);fill:#120C15;}
	</style>
	<g>
		<g>
			<g>
				<defs>
					<path id="SVGID_1_" d="M56.5,10.6c-7.3,3.7-10.3,3.5-11.9,3.5c-1.6,0-6.7-0.7-11.3-3C29.2,9.1,23.6,7,19.2,7
					c-3,0-7.2,1.3-7.2,1.3l-1.3,4.2c0,0,3.1-1.8,8.3-1.9c4.7-0.1,10.2,2.5,13,3.9c2.5,1.2,9.5,3.2,12.6,3.3c3.6,0.1,8.1-1.1,13-3.5
					c3.8-1.9,6-3.3,12.2-3.5c5-0.2,12,3,13.9,3.9c1.9,0.8,7.5,3.2,12.8,3.1c6.5-0.1,12.9-3.6,13.5-4c0.6-0.3,5.1-2.8,11.2-2.8
					s7.4,1.4,7.4,1.4l-0.1-3.2c-1.1-0.8-3.1-1.9-7.3-2c-3.4-0.1-9,1.6-12.2,3.1c-3.4,1.6-8.2,4-12.4,4c-3.2,0-3.6,0-11.6-3
					S73.9,7.1,69.8,7.1C67.8,7,63,7.3,56.5,10.6"/>
				</defs>
				<clipPath id="SVGID_2_">
					<use xlink:href="#SVGID_1_" style="overflow:visible;"/>
				</clipPath>

				<linearGradient id="SVGID_3_" gradientUnits="userSpaceOnUse" x1="1.01" y1="555.9462" x2="2.01" y2="555.9462" gradientTransform="matrix(-100.667 0 0 100.667 241.8612 -55953.043)">
					<stop offset="0" style="stop-color:#F9ED36"/>
					<stop offset="0.3202" style="stop-color:#F17F62"/>
					<stop offset="1" style="stop-color:#EB2A2A"/>
				</linearGradient>
				<rect x="10.7" y="7" class="st0" width="117.8" height="10.8"/>
			</g>
		</g>
	</g>
	<g>
		<g>
			<g>
				<defs>
					<path id="SVGID_4_" d="M18.8,13c-4,0-8.4,1.7-8.4,1.7l-1.3,4.2c0,0,4.3-2.4,9.4-2.5c4.7-0.1,10.3,2.8,13.1,4.1
					c2.5,1.2,9.5,3.1,12.6,3.2c4.3,0.2,8.2-0.7,13.1-3.2c3.8-1.9,5.9-3.6,12.1-3.8c5-0.2,12,3.4,13.9,4.2s7.5,2.9,12.8,2.8
					c6.5-0.1,12.9-3.7,13.5-4s5.1-2.8,11.2-2.8s7.4,1.4,7.4,1.4l-0.1-3.2c-1.1-0.8-3.1-1.9-7.3-2c-3.4-0.1-8.7,1.8-11.9,3.3
					c-3.4,1.6-8.5,3.8-12.7,3.8c-3.2,0-3.7,0.6-11.7-2.4S73.1,12.9,69,13.1c-2.9,0.1-5.5,0.9-12.1,4c-7.7,3.6-10.9,3.1-12.5,3.1
					s-6.7-0.9-11.3-3.1C29.1,15.2,23.8,13,18.8,13C18.9,13,18.8,13,18.8,13"/>
				</defs>
				<clipPath id="SVGID_5_">
					<use xlink:href="#SVGID_4_" style="overflow:visible;"/>
				</clipPath>

				<linearGradient id="SVGID_6_" gradientUnits="userSpaceOnUse" x1="1.0098" y1="556.0108" x2="2.0098" y2="556.0108" gradientTransform="matrix(-101.8006 0 0 101.8006 242.8507 -56583.6836)">
					<stop offset="0" style="stop-color:#F9ED36"/>
					<stop offset="0.3202" style="stop-color:#5395C2"/>
					<stop offset="1" style="stop-color:#5395C2"/>
				</linearGradient>
				<rect x="9.2" y="13" class="st1" width="119.1" height="11.1"/>
			</g>
		</g>
	</g>
	<g>
		<g>
			<g>
				<defs>
					<path id="SVGID_7_" d="M56.6,24.2l-0.9,4c3.1-1.6,7.1-4.2,13.2-5c3.9-0.5,12.4,3.3,14.3,4.1c1.9,0.8,7.8,2.7,13.1,2.6
					c6.5-0.1,12.9-3.2,13.5-3.5s5.1-2.9,11.2-2.9s7.4,1.4,7.4,1.4l-0.1-3.2c-1.1-0.7-3.1-1.9-7.3-2c-3.4-0.1-9,1.6-12.2,3.1
					c-3.3,1.6-8.1,3.5-12.3,3.5c-3.2,0-3.8,0.8-11.7-2.2c-8-3-11.9-4.5-16-4.5C66.8,19.7,62.6,20.6,56.6,24.2"/>
				</defs>
				<clipPath id="SVGID_8_">
					<use xlink:href="#SVGID_7_" style="overflow:visible;"/>
				</clipPath>

				<linearGradient id="SVGID_9_" gradientUnits="userSpaceOnUse" x1="1.0161" y1="552.8453" x2="2.0161" y2="552.8453" gradientTransform="matrix(-62.1378 0 0 62.1378 203.2369 -34327.7383)">
					<stop offset="0" style="stop-color:#F9ED36"/>
					<stop offset="0.3202" style="stop-color:#FFD12E"/>
					<stop offset="1" style="stop-color:#FFD12E"/>
				</linearGradient>
				<rect x="55.7" y="19.7" class="st2" width="72.7" height="10.3"/>
			</g>
		</g>
	</g>
	<g>
		<g>
			<g>
				<defs>
					<rect id="SVGID_10_" width="142.6" height="66.6"/>
				</defs>
				<clipPath id="SVGID_11_">
					<use xlink:href="#SVGID_10_" style="overflow:visible;"/>
				</clipPath>
				<path class="st3" d="M30.3,37.8v2.5c0,0-4.3,7.2-8.6,10.6c0,0-4.4,4.7-10.2,1.1c0,0-3.7-2.4-1.4-10.7l7.2-23.6c0,0,4.3,0,7.6,1.4
				c0,0-3.8,14.1-3.8,14.5L18.5,42c0,0-2.4,6.9,3.1,4.8C21.6,46.9,27.5,41.6,30.3,37.8"/>
			</g>
		</g>
		<g>
			<g>
				<defs>
					<rect id="SVGID_12_" width="142.6" height="66.6"/>
				</defs>
				<clipPath id="SVGID_13_">
					<use xlink:href="#SVGID_12_" style="overflow:visible;"/>
				</clipPath>
				<path class="st4" d="M21.4,2.5l-0.8,3.1c0,0,4.3,0,8,1.8L30.9,0L21.4,2.5z"/>
			</g>
		</g>
		<g>
			<g>
				<defs>
					<rect id="SVGID_14_" width="142.6" height="66.6"/>
				</defs>
				<clipPath id="SVGID_15_">
					<use xlink:href="#SVGID_14_" style="overflow:visible;"/>
				</clipPath>
				<g class="st5">
					<text transform="matrix(1.0152 0 0 1 0.165 66.4637)" class="st6 st7 st8">Alumni Zuidoost-Vlaamse K.U. Leuven</text>
				</g>
			</g>
		</g>
		<g>
			<g>
				<defs>
					<rect id="SVGID_16_" width="142.6" height="66.6"/>
				</defs>
				<clipPath id="SVGID_17_">
					<use xlink:href="#SVGID_16_" style="overflow:visible;"/>
				</clipPath>
				<path class="st9" d="M35.8,44.8c1.2-0.2,2.2-0.4,2.9-0.7s1.3-0.7,2-1.4s1.2-1.4,1.7-2.4s0.7-1.9,0.7-2.7c0-0.4-0.1-0.6-0.3-0.8
				s-0.5-0.3-0.8-0.3c-0.7,0-1.4,0.4-2.3,1.3C38.2,39.4,36.9,41.7,35.8,44.8 M35.7,45.8c-0.1,0.8-0.2,1.5-0.2,2c0,1,0.3,1.7,0.9,2.3
				c0.6,0.6,1.4,0.9,2.5,0.9c1,0,2-0.2,3-0.6c1-0.4,2.2-1.5,3.2-2.7l0.6,0.6c-1.2,1.8-2.9,3.5-4.4,4.1c-1.5,0.7-3.2,1-5,1
				c-2.3,0-3.9-0.5-4.8-1.5c-0.9-1-1.3-2.2-1.3-3.5c0-2.1,0.3-4.3,1.6-6.4c1.3-2.1,3.2-3.9,5.5-5.1c2.3-1.3,4-1.5,6.3-1.5
				c1.2,0,2.2,0.5,2.8,1s1.2,1.3,1.5,2.4c0.2,0.9,0.1,2-0.2,2.6c-0.7,1.3-1.2,1.7-2.4,2.4c-1.7,1-4.4,1.4-5.4,1.7
				C38.7,45.7,37.4,45.7,35.7,45.8"/>
			</g>
		</g>
		<g>
			<g>
				<defs>
					<rect id="SVGID_18_" width="142.6" height="66.6"/>
				</defs>
				<clipPath id="SVGID_19_">
					<use xlink:href="#SVGID_18_" style="overflow:visible;"/>
				</clipPath>
				<path class="st10" d="M57.6,35.9c1.7,0.7-0.8,7.5-0.8,7.5c1.6-2.5,2.8-4.1,3.6-5.1c1.2-1.3,1.9-1.8,2.8-2.3
				c0.8-0.5,1.7-0.7,2.4-0.7c1.2,0,1.5,0.4,2,0.9s0.7,1.1,0.7,2c0,0.7-0.1,1.3-0.4,2.3l-2.5,8.2c-0.2,0.7-0.3,1.2-0.3,1.4
				c0,0.1,0.1,0.3,0.1,0.4c0.1,0.1,0.2,0.2,0.3,0.2c0.1,0,0.3,0,0.4-0.2c0.4-0.4,0.9-0.9,1.3-1.6c0.1-0.2,1-1.5,1.3-1.8v1.1
				c-1.8,3.2-3.8,5.2-5.8,5.2c-0.8,0-2.1-0.2-2.6-0.6c-0.4-0.4-0.7-0.9-0.7-1.5c0-0.5,0.1-1.3,0.4-2.3l2.8-8.3
				c0.3-1.1,0.7-2.1,0.7-2.4c0-0.1-0.1-0.3-0.2-0.4c-0.1-0.1-0.3-0.2-0.4-0.2c-0.5,0-1.1,0.5-1.8,1.2c-1.8,1.7-3.3,4.7-4.8,8.5
				l-2,5.8h-4.8l3.5-12.6c0.3-1.2,0.3-1.2,0.3-1.7c0-0.2,0.2-0.5-0.1-0.6c-0.1,0-0.2,0-0.4,0.1s-2.6,2.5-3.3,3L49,40.2l4.1-3.8
				C53.1,36.5,54.9,34.9,57.6,35.9"/>
			</g>
		</g>
		<g>
			<g>
				<defs>
					<rect id="SVGID_20_" width="142.6" height="66.6"/>
				</defs>
				<clipPath id="SVGID_21_">
					<use xlink:href="#SVGID_20_" style="overflow:visible;"/>
				</clipPath>
				<path class="st11" d="M97.2,35.5c1.7,0.1,1.5,1.2,1.6,2c0.2,1.2-1,6.6-1,6.6c2.8-5.3,3.7-6.4,5.3-7.4c0.9-0.6,2.1-0.9,3-0.9
				c0.6,0,1.1,0.2,1.5,0.6c0.4,0.4,0.6,0.9,0.6,1.7c0,1.2-0.3,2.3-1.1,3.1c-0.4,0.5-0.9,0.8-1.5,0.8s-1.1-0.2-1.4-0.7
				s-0.4-1.8-0.5-1.9c-0.1-0.1-0.3-0.1-0.4-0.1c-0.2,0-0.3,0-0.5,0.1c-0.3,0.2-0.8,0.5-1.3,1.1s-1.5,2.5-2.3,3.9s-1.2,2.8-1.6,3.7
				c-0.4,1-1.1,2.8-2,5.5h-5.8l3.8-12.2c0.3-1,0.5-1.5,0.5-1.9s-0.1-0.8-0.2-1c-0.2-0.2-0.6-0.2-0.9,0c0,0-2.7,2.7-3,3v-1.1l2.5-2.9
				C92.5,37.6,94.6,35.3,97.2,35.5"/>
			</g>
		</g>
		<g>
			<g>
				<defs>
					<rect id="SVGID_22_" width="142.6" height="66.6"/>
				</defs>
				<clipPath id="SVGID_23_">
					<use xlink:href="#SVGID_22_" style="overflow:visible;"/>
				</clipPath>
				<path class="st12" d="M122.6,39.3c0-1-0.2-1.8-0.6-2.2c-0.3-0.3-0.6-0.5-1.1-0.5s-1,0.2-1.5,0.6c-1,0.8-2.1,2.4-3.3,4.7
				s-1.8,4.4-1.8,6.2c0,0.7,0.1,1.1,0.4,1.4c0.3,0.3,0.6,0.5,0.9,0.5c0.7,0,1.4-0.3,2.1-1c1-0.9,1.9-2.1,2.7-3.4
				C121.9,43.3,122.6,41.2,122.6,39.3 M129.9,35.7l-4.5,12.6l-0.5,1.5c0,0.2-0.1,0.3-0.1,0.4c0,0.1,0.1,0.3,0.2,0.4
				c0.1,0.1,0.3,0.2,0.4,0.2c0.3,0,0.8-0.2,1.3-0.6c0.2-0.2,0.8-0.7,1.6-1.7l0.8,0.3c-1.1,1.6-2.2,2.8-3.5,3.6
				c-1.2,0.7-2.6,1.1-4,1.1c-0.9,0-1.5-0.2-2-0.5s-0.7-0.8-0.7-1.4c0-0.5,0.3-1.4,0.8-2.7l0.6-1.5c-1.8,2.5-3.5,4.3-5.1,5.3
				c-0.9,0.6-2,0.9-3,0.9c-1.4,0-2.4-0.5-3.1-1.4c-0.6-1-0.9-2-0.9-3.2c0-1.8,0.7-3.8,2-6.1s3.1-4.1,5.2-5.5c1.8-1.1,3.4-1.7,5-1.7
				c0.9,0,1.6,0.2,2.1,0.6c0.5,0.4,0.9,1.1,1.1,2.2l0.8-2.4L129.9,35.7z"/>
			</g>
		</g>
		<g>
			<g>
				<defs>
					<rect id="SVGID_24_" width="142.6" height="66.6"/>
				</defs>
				<clipPath id="SVGID_25_">
					<use xlink:href="#SVGID_24_" style="overflow:visible;"/>
				</clipPath>
				<path class="st13" d="M76.5,44.8c1.2-0.2,2.2-0.4,2.9-0.7c0.7-0.3,1.3-0.7,2-1.4c0.7-0.6,1.2-1.4,1.7-2.4s0.7-1.9,0.7-2.7
				c0-0.4-0.1-0.6-0.3-0.8c-0.2-0.2-0.5-0.3-0.8-0.3c-0.7,0-1.4,0.4-2.3,1.3C78.8,39.4,77.5,41.7,76.5,44.8 M76.3,45.8
				c-0.1,0.8-0.2,1.5-0.2,2c0,1,0.3,1.7,0.9,2.3s1.4,0.9,2.4,0.9s2-0.2,2.9-0.6c1-0.4,2.2-1.5,3.2-2.7l0.6,0.6
				c-1.2,1.8-2.9,3.5-4.4,4.1c-1.5,0.7-3.2,1-5.1,1c-2.3,0-3.9-0.5-4.8-1.5s-1.3-2.2-1.3-3.5c0-2.1,0.3-4.3,1.6-6.4s3.2-3.9,5.5-5.1
				c2.3-1.3,4-1.5,6.3-1.5c1.2,0,2.2,0.5,2.8,1s1.2,1.3,1.5,2.4c0.2,0.9,0.1,2-0.2,2.6c-0.7,1.3-1.2,1.7-2.4,2.4
				c-1.7,1-4.4,1.4-5.4,1.7C79.3,45.7,78,45.7,76.3,45.8"/>
			</g>
		</g>
	</g>
</svg>
